PathFileType	4	(X/Y/Z)	C:/Users/opensim2020/Desktop/walking_exp_matlab/subject06_walking20_straight_03.trc	
DataRate	CameraRate	NumFrames	NumMarkers	Units	OrigDataRate	OrigDataStartFrame	OrigNumFrames	
100.00	100.00	6	43	mm	100.00	1763	132	
Frame#	Time	LFHD			RFHD			LBHD			RBHD			C7			T10			CLAV			STRN			RBAK			LSHO			LUPA			LELB			LFRM			LWRA			LWRB			LFIN			RSHO			RUPA			RELB			RFRM			RWRA			RWRB			RFIN			LASI			RASI			LPSI			RPSI			LTHI			LKNE			LTIB			LANK			LHEE			LTOE			RTHI			RKNE			RTIB			RANK			RHEE			RTOE			*39			*40			*41			*42			
		X1	Y1	Z1	X2	Y2	Z2	X3	Y3	Z3	X4	Y4	Z4	X5	Y5	Z5	X6	Y6	Z6	X7	Y7	Z7	X8	Y8	Z8	X9	Y9	Z9	X10	Y10	Z10	X11	Y11	Z11	X12	Y12	Z12	X13	Y13	Z13	X14	Y14	Z14	X15	Y15	Z15	X16	Y16	Z16	X17	Y17	Z17	X18	Y18	Z18	X19	Y19	Z19	X20	Y20	Z20	X21	Y21	Z21	X22	Y22	Z22	X23	Y23	Z23	X24	Y24	Z24	X25	Y25	Z25	X26	Y26	Z26	X27	Y27	Z27	X28	Y28	Z28	X29	Y29	Z29	X30	Y30	Z30	X31	Y31	Z31	X32	Y32	Z32	X33	Y33	Z33	X34	Y34	Z34	X35	Y35	Z35	X36	Y36	Z36	X37	Y37	Z37	X38	Y38	Z38	X39	Y39	Z39	X40	Y40	Z40	X41	Y41	Z41	X42	Y42	Z42	X43	Y43	Z43	

83	0.820	-1065.48865	168.61478	1651.78784	-934.92987	152.41585	1637.85938	-1084.11609	36.75709	1599.85950	-956.07312	22.02124	1590.29590	-1025.93652	26.22136	1440.74829	-1009.85449	-12.31159	1111.40869	-1015.85107	134.49895	1360.56348	-1015.16022	171.98375	1185.05774	-945.91284	-55.35383	1272.66736	-1182.30652	89.10765	1389.37524	-1257.43359	51.49253	1192.81714	-1271.44983	17.66331	1085.78333	-1303.43018	3.36915	938.69043	-1268.45947	30.63770	808.49829	-1309.35559	-26.08272	824.40515	-1311.57129	-15.09308	733.27100	-858.30804	78.33347	1397.93176	-766.37317	19.47195	1208.47668	-748.36157	21.84765	1087.32373	-731.07104	59.11883	974.64136	-763.09790	153.66107	859.92993	-727.67072	99.13132	843.99225	-723.41467	155.12172	783.09045	-1110.39832	173.95010	958.28662	-891.97955	153.92920	947.26434	-1096.73511	13.82816	983.12122	-928.64008	5.68086	972.53369	-1174.31934	159.23448	648.02533	-1140.99146	195.10028	491.30981	-1132.49524	165.88539	234.66135	-1087.69189	157.91754	64.54509	-1046.44507	112.18959	51.85470	-1070.44714	300.25070	36.47777	-844.28455	125.82624	607.19794	-857.19769	151.58765	483.12057	-873.05554	-39.94449	322.06049	-923.53986	-194.64404	227.45282	-969.98743	-231.66798	248.44824	-926.69781	-156.84319	73.86931	-1018.42859	62.49767	1690.28918									 
84	0.830	-1065.05347	182.84697	1654.39050	-934.59637	166.50439	1640.41577	-1083.96399	51.05410	1602.45898	-955.93042	36.11824	1592.73694	-1026.12280	40.53159	1443.21838	-1010.75531	1.99442	1114.07458	-1015.78723	148.80432	1363.20581	-1015.26239	186.26683	1187.73474	-947.09491	-41.20681	1275.12500	-1182.31775	103.77796	1392.16895	-1257.69141	70.05767	1194.78687	-1272.32190	38.71596	1087.14294	-1304.15466	28.15364	939.66205	-1269.02209	58.11558	810.27594	-1310.16248	1.19386	824.64148	-1313.16260	15.19800	734.19647	-858.42230	92.02020	1400.36060	-767.51715	32.19178	1210.70740	-750.04340	34.27643	1089.16248	-732.78632	68.22196	974.97858	-764.65790	158.66953	856.87738	-729.14032	103.69757	842.92810	-725.12256	157.44624	779.89606	-1110.57983	188.05882	960.60730	-892.37872	168.28790	950.54742	-1097.27283	28.19880	985.75543	-929.59241	20.17264	975.12085	-1174.47156	167.97774	649.40399	-1141.69885	199.83801	491.23456	-1133.14941	167.20764	234.70549	-1087.71619	157.68549	64.65782	-1046.39685	111.94854	51.81756	-1070.47241	300.05362	36.43750	-844.95764	147.51431	611.52820	-858.68561	177.13795	488.48993	-872.93433	-9.76876	323.29437	-922.36475	-162.78313	224.03748	-968.92938	-201.64018	242.85181	-924.06927	-116.62109	73.85191	-1018.16437	76.60155	1692.81897									 
85	0.840	-1064.47290	197.12935	1656.98792	-934.06073	180.53096	1642.70715	-1083.70984	65.34930	1605.06360	-955.71411	50.06578	1595.03967	-1026.26001	54.72676	1445.59644	-1011.82202	16.42245	1116.58655	-1015.71069	162.97154	1365.72498	-1015.38806	200.54480	1190.34851	-948.06061	-27.05856	1277.50708	-1182.23706	118.36736	1394.99792	-1257.80566	88.54726	1196.96143	-1273.05432	59.92390	1088.56006	-1304.58093	53.49604	940.87250	-1269.43176	86.33038	812.48596	-1310.73889	29.18205	825.13013	-1314.44324	46.33155	735.49146	-858.48560	105.63341	1402.68311	-768.66406	45.01143	1212.84778	-751.86896	46.61758	1091.02319	-734.58270	77.20451	975.67480	-766.13434	163.50969	854.22174	-730.63318	107.85925	842.20990	-726.80536	159.44878	777.14374	-1111.08350	201.98581	962.71509	-892.94122	182.75314	953.85632	-1097.74365	42.48633	988.09082	-930.39410	34.88990	977.89032	-1174.25757	176.82767	650.43793	-1142.25940	204.72768	491.04630	-1134.12073	169.11400	234.50957	-1087.74280	157.55965	64.74403	-1046.43970	111.71229	51.87739	-1070.31177	299.94522	36.45421	-845.64563	168.97804	616.05524	-859.58362	203.09839	494.04929	-872.92810	20.06068	323.82730	-921.41785	-130.18712	219.25746	-968.14056	-170.90334	235.43900	-921.48108	-74.96359	73.20934	-1017.72314	90.78947	1695.33875									 
86	0.850	-1063.73755	211.42848	1659.18005	-933.46729	194.59348	1644.69934	-1083.33960	79.56413	1607.57458	-955.40509	64.08431	1597.25745	-1026.36035	68.91744	1447.73828	-1012.84253	30.78506	1118.95422	-1015.63086	177.12874	1368.04114	-1015.58716	214.76941	1192.75403	-948.77142	-12.94316	1279.74719	-1182.06348	133.01698	1397.74182	-1257.78906	106.89787	1199.21558	-1273.56042	81.12821	1090.23645	-1305.15234	78.87093	942.34747	-1269.51062	114.86553	814.91199	-1311.30457	57.63654	825.97034	-1315.43860	78.18938	737.16443	-858.57800	119.31035	1404.83203	-769.67841	57.96125	1214.85486	-753.74933	58.78066	1092.89307	-736.32007	86.07465	976.51642	-767.77747	168.55017	852.01764	-732.06616	112.09370	841.82257	-728.19843	161.16736	774.65558	-1112.03149	215.69818	964.45990	-893.84521	197.48985	957.08563	-1098.14526	56.65839	990.12897	-930.74438	49.22785	980.67267	-1174.23462	185.52132	650.89990	-1142.69360	209.70654	490.68872	-1134.71533	171.66092	234.38290	-1087.83643	157.70451	64.87514	-1046.58289	111.70448	52.01241	-1070.07117	299.95190	36.36219	-846.28967	190.25218	620.60455	-860.99878	227.73779	499.72009	-873.09314	49.67225	323.64975	-920.61615	-97.00674	213.12306	-967.46472	-139.31215	226.29834	-918.27985	-31.29254	72.73729	-1017.13220	105.08754	1697.64990									 
87	0.860	-1062.99902	225.74400	1661.01770	-932.73737	208.64410	1646.30164	-1082.91467	93.75001	1609.86096	-955.01971	78.03598	1599.28101	-1026.42102	83.02592	1449.67053	-1013.69177	45.01618	1121.11768	-1015.56323	191.25510	1370.10840	-1015.94611	229.07593	1194.87866	-949.32764	1.26733	1281.71497	-1181.88110	147.63651	1400.42761	-1257.98938	125.18776	1201.57556	-1274.14233	102.24734	1091.87671	-1305.31787	104.95509	943.85327	-1269.27856	143.84840	817.65375	-1311.55396	86.71506	826.89349	-1316.01514	110.54427	739.08917	-858.68304	133.09491	1406.71509	-770.62903	71.01133	1216.69971	-755.53424	70.70444	1094.61426	-738.06824	94.80216	977.36676	-769.10876	172.29117	849.31329	-733.27618	116.19781	841.62616	-729.80286	162.71758	772.44012	-1113.29858	229.27803	965.89154	-894.95844	212.32091	960.08185	-1098.54443	70.73194	991.87640	-931.23334	64.17939	983.09949	-1174.30200	194.64793	651.05237	-1143.07361	214.81825	490.23956	-1134.95117	174.08568	234.30766	-1087.77368	157.98483	64.90572	-1047.03088	111.37073	52.23304	-1069.97595	299.98160	36.19922	-846.84515	211.00470	625.04712	-862.18488	251.75539	505.26880	-873.36737	79.03957	322.82190	-919.76056	-62.77772	205.62851	-966.86786	-106.61135	215.56783	-915.81763	13.01452	71.93859	-1016.39606	119.28342	1699.64111									 
88	0.870	-1062.01196	240.09674	1662.94971	-931.84674	222.73225	1647.58679	-1082.37427	107.91885	1611.83191	-954.54218	92.04876	1601.00061	-1026.42908	97.11582	1451.05798	-1014.49396	59.36412	1122.88501	-1015.49506	205.42731	1371.79504	-1016.40710	243.41696	1196.63330	-949.77661	15.45130	1283.32678	-1181.57361	162.16444	1402.75305	-1257.84875	143.18565	1203.58960	-1274.75818	123.35477	1093.44226	-1305.66211	130.70924	945.47089	-1268.83667	173.26563	820.60352	-1311.65051	116.29123	827.89105	-1316.21619	143.58815	741.25000	-858.78638	147.00244	1408.18933	-771.44757	83.97712	1218.26392	-757.21069	82.41206	1096.01660	-739.71094	103.33792	978.12421	-770.31757	176.75418	847.31219	-734.45599	120.43180	841.57739	-731.33984	164.41203	770.36517	-1114.72607	242.77003	966.91272	-896.19556	227.17847	962.67139	-1098.88354	84.67874	993.26099	-931.41138	78.90253	985.37323	-1174.54346	203.36069	650.97278	-1143.53613	219.82306	489.65878	-1135.32031	175.95471	234.26079	-1087.78906	158.14838	64.99149	-1046.99792	111.33107	52.46208	-1069.92493	300.06506	36.05328	-847.28009	231.47849	629.23578	-863.38971	275.08292	510.44794	-873.71417	108.54856	321.18774	-919.36798	-27.97876	197.23006	-966.44037	-72.64537	203.92546	-913.90308	57.20202	70.02785	-1015.54486	133.55699	1701.35352									 
